<svg xmlns="http://www.w3.org/2000/svg" xmlns:xlink="http://www.w3.org/1999/xlink" width="211.266" height="138.615" viewBox="0 0 211.266 138.615">
  <defs>
    <linearGradient id="linear-gradient" y1="0.5" x2="1" y2="0.5" gradientUnits="objectBoundingBox">
      <stop offset="0" stop-color="#20c9ed"/>
      <stop offset="1" stop-color="#7d22c8"/>
    </linearGradient>
  </defs>
  <g id="logo" transform="translate(-123 -276)">
    <path id="Path_1" data-name="Path 1" d="M270.3,369v32.85h22.432v-4.881H275.553V369Zm42.586,32.85,2.91-6.758h15.862l2.909,6.758H340.1L325.836,369h-4.271l-14.22,32.85Zm16.707-11.638H317.858l5.866-13.75,5.866,13.75Zm36.2,11.638,7.6-23.746,7.6,23.746h4.271L396.486,369h-5.4l-7.838,24.45-7.7-24.45h-4.271l-7.7,24.45L355.7,369h-5.4l11.216,32.85Z" transform="translate(-62.22 -39.283)" fill-rule="evenodd"/>
    <path id="Path_2" data-name="Path 2" d="M274.63,460.919V449.694l8.753,11.224h3.706v-18.4h-4.022v11.277l-8.754-11.277h-3.706v18.4Zm25.682,0v-18.4h-4.179v18.4Zm13.065,0V449.694l8.753,11.224h3.706v-18.4h-4.022v11.277l-8.753-11.277h-3.706v18.4Zm34.488-18.4h-4.022v11.54a3.256,3.256,0,0,1-1,2.392,3.371,3.371,0,0,1-2.471.973,3.453,3.453,0,0,1-3.022-1.656L333.882,458a8.042,8.042,0,0,0,11.829,1.209,6.768,6.768,0,0,0,2.155-5.152v-11.54Zm11.357,18.4,1.262-3.1h7.7l1.262,3.1h4.337l-7.728-18.4h-3.444l-7.754,18.4Zm7.439-6.835h-4.626l2.313-5.652,2.313,5.652Zm27.68-7.6A5.323,5.323,0,0,0,392,443.412a7.558,7.558,0,0,0-4.311-1.236,6.629,6.629,0,0,0-4.574,1.577,5.191,5.191,0,0,0-1.735,4.075,5.292,5.292,0,0,0,.736,2.681,7.039,7.039,0,0,0,1.866,1.682,9.72,9.72,0,0,0,1.262.6l1.288.473c.316.079.789.237,1.393.421l.263.079a5.973,5.973,0,0,1,2.287,1.078,1.137,1.137,0,0,1,.473.894c0,.973-1.209,1.682-2.708,1.682-1.655,0-2.917-.815-3.207-1.867l-4.18,1a5.843,5.843,0,0,0,2.577,3.391,8.667,8.667,0,0,0,4.81,1.314,7.474,7.474,0,0,0,4.968-1.6,5.285,5.285,0,0,0,1.919-4.285,4.68,4.68,0,0,0-2.524-4.364,10.088,10.088,0,0,0-2.76-1.156q-2.208-.671-2.76-.868c-1.025-.42-1.525-.92-1.525-1.472,0-.867.946-1.5,2.209-1.5a2.425,2.425,0,0,1,2.444,1.446l4.127-.973Z" transform="translate(-62.351 -70.195)" fill-rule="evenodd"/>
    <path id="Path_3" data-name="Path 3" d="M178.8,294.173c0,.018,0,.036,0,.055a.689.689,0,1,1-1.257-.392l-.746-.2.131-.345,2.661.714-.094.353-.7-.187ZM130.349,399.645c.056-.914,13.8-36.416,14.9-39.478l5-13.1,1.253.44c-.359,1.44-14.8,36.757-15.761,39.03-.945,2.238-4.68,11.98-5.39,13.1Zm19.032-52.877c-1.07,3.124-5.475,13.472-6.522,16.212-4.181,10.945-9.042,22.17-13.316,33.167-1.854,4.771-5.055,12.067-6.543,16.435,1.3-1.092,2.5-2.389,3.772-3.563,1.807-1.665,1.61-1.829,2.426-3.868,1.111-2.776,2.192-5.476,3.314-8.217l3.232-8.1c1.076-2.7,2.155-5.42,3.315-8.215,2.282-5.5,4.3-11,6.622-16.527,1.16-2.762,2.236-5.5,3.347-8.322.474-1.2,2.581-6.637,3.252-7.986l.025.009,4.5.463.3-.746c-2.025-.9-.87-.383-3.175-1.469l.628-.512a8.867,8.867,0,0,1,1.077-.438,10.045,10.045,0,0,1-.027-5.117c1.661-5.651,3-6.1,6.514-11a79.507,79.507,0,0,0,4.673-7.018c.989-1.734,3.3-6.445,4.371-7.389.226,1.329,2.787,6.137,2.9,10.157q3.471-.189,6.986-.185,2.328,0,4.636.085a29.813,29.813,0,0,1-7.468-7.175,30.418,30.418,0,0,1-5.245-12.557c-2.423.333-4.919.645-5.946,2.572l-12.3,23.756c-1.717,3.347-4.814,8.7-5.2,12.777l-2.835-1.054-.323.8,3.035,2.817c-.012.059-.031.125-.053.2l.039.013Zm35.031-53.475.132.345-.746.2a.69.69,0,1,1-1.257.392c0-.019,0-.037,0-.055l-.7.187-.095-.353,2.661-.714Zm36.977-9.6-.021.013-.01-.559c1.542-.749,2.455-.366,2.235-2.7-.412-4.356-6.158-5.406-9.992-3.621-3.751,1.747-3.59,1.183-5.982,4.186-4.557,5.72-8.412,11.773-13.89,16.579-3.755,3.294-6.073,7.052-8.494,6.507a3.313,3.313,0,0,1-2.182-2.2c-.137-.3-.419-.637.1-.868a6.992,6.992,0,0,0,2.716-2.194,9.108,9.108,0,0,0,.745-9.283c-2.644-5.436-8.562-5.925-11.631-.545l-.038.068a5.575,5.575,0,0,1,.445-2.9c1.15-2.589,8.459-3.723,6.292-10.132h-3.852c1.6,5.452-4.1,5.6-4.387,10.592-2.028-1.254-2.786-3.2-1.818-6.1l-4.013-.027c-.283,2.7.222,4.862,1.691,6.36,1.632,1.665,3.914,1.738,4.808,4.271a8.907,8.907,0,0,0,1.739,8.1,7,7,0,0,0,2.49,1.816c.5.21.293.612.2.925-.464,1.579-1.852,2.208-3.529,2.566a27.521,27.521,0,0,0,12.88,19.032,9.317,9.317,0,0,1,1.03-4.9c.881-1.861,2.057-3,1.914-5.238-.081-1.266-.687-1.918-.963-3.136a58.9,58.9,0,0,1,6-6.51c8.678-8.378,7.552-8.466,13.164-17.812.757-1.261,1.958-2.91,2.4-3.94,3.044.083,3.835-.342,6.436-.687l.3,1.525,1.312.506-.005,1.414-.014.009.006,1.762c-1.543,1.13-3.36,2.216-4.982,3.3-.766.511-4.794,2.66-3.773,4.1.788.127,1.615-.8,2.215-1.05-.419,2.125-1.08,4.334-1.595,6.477-.462,1.92-3.087,12.027-2.966,13.174.094.9,1.294,1.59,2.112,1.906,2.256.873,6.3.815,8.031-1.093.451-.5.407-.814.3-1.58-.667-4.758-2.5-11.616-3.74-16.47a27.053,27.053,0,0,1-.783-3.329l5.164-3.435c.013,1.085.018,2.145.016,3.2a2.085,2.085,0,0,0,.22,1.348,1.888,1.888,0,0,0,.806.816c1.01-.516.883-1.843.883-2.86,0-1.242-.032-2.527.007-3.764.568-.458,6.367-4.3,6.8-4.473-.117.838-3.03,12.428-3.342,13.738q-.409,1.718-.8,3.451c-.2.887-.8,2.723-.286,3.5,1.42,2.147,7.353,2.493,9.6.323.841-.813.426-1.859.158-3.345-1.037-5.739-2.678-11.582-4.089-17.257-.062-.252-.184-.616-.224-.877-.091-.6,1.1-1.273.661-2.353-.649-.111-1.71.81-2.235,1.159-1.035.688-5.745,3.962-6.239,4.069v-.013h.007l-.006-.38V283.7Zm-47.542,43.12a4.993,4.993,0,0,1-.478,1.2c-2.266,4.007-3.765,7.048-4.434,12.62-1.516,12.634,3.277,20.883,3.874,29.361.516,7.341-.158,14.686-3.266,20.07h19.268c-7.39-7.389-10.668-15.831-10.41-23.943,1.111,4.148,5.064,15.784,11.479,19.323-.135-3.755-.722-6.375-.385-10.553.84-10.436,4.827-16.8,4.468-29.525-.28-9.88-3.6-14.492-5.22-18.516q-3.876-.231-7.7-.237-3.576,0-7.2.2ZM210.5,311.548c4.169-.379,2.5-.266,6.352.036-.176-1.554-3.035-18.219-3.155-18.372a34.532,34.532,0,0,0-.858,4.543c-.25,1.484-.509,3.024-.776,4.548-.351,2.013-1.4,7.63-1.562,9.245Zm15.022-9.612a20.388,20.388,0,0,1,6.428.021l-3.168-18.044c-.14.085-.12-.011-.2.492l-1.489,8.5c-.274,1.5-.535,3.01-.793,4.522-.25,1.472-.609,3.029-.776,4.509Zm-45.676-6.317c-1.21.3-2.517.9-3.525.55-1.09-.378-1.029-1.926-.57-2.775,1.036-1.915,8.8-1.915,9.832,0,.459.848.52,2.4-.57,2.775-1.036.359-2.385-.284-3.623-.573a2.6,2.6,0,0,0-1.544.023Z" transform="translate(0)" fill-rule="evenodd" fill="url(#linear-gradient)"/>
    <path id="Path_4" data-name="Path 4" d="M207.092,510.287a3.5,3.5,0,0,0,2.533-.984,3.387,3.387,0,0,0,0-4.85,3.5,3.5,0,0,0-2.533-.984h-2.765v6.817Zm0-5.61a2.162,2.162,0,0,1,2.2,2.2,2.169,2.169,0,0,1-.633,1.568,2.139,2.139,0,0,1-1.568.633h-1.461v-4.4Zm10.172-1.354a3.588,3.588,0,1,0,3.564,3.555,3.494,3.494,0,0,0-3.564-3.555Zm-2.191,3.555a2.271,2.271,0,0,1,.623-1.636,2.187,2.187,0,0,1,3.136,0,2.431,2.431,0,0,1,0,3.272,2.211,2.211,0,0,1-3.136,0,2.272,2.272,0,0,1-.623-1.636Zm10.259,3.409V505.72l3.594,4.568h1.159V503.47h-1.256v4.577l-3.594-4.577h-1.159v6.817Zm9.548-6.418c0-.594-.341-1.032-.838-1.032a.738.738,0,0,0-.76.74.776.776,0,0,0,.633.769q0,.278-.555.848l.379.4a2.118,2.118,0,0,0,1.14-1.724Zm5.127.809v5.61h1.315v-5.61h2.259V503.47h-5.834v1.208Zm12.684,5.61a2.287,2.287,0,0,0,1.568-.555,1.866,1.866,0,0,0-.322-3.029,1.706,1.706,0,0,0,.663-1.373,1.687,1.687,0,0,0-.6-1.325,2.145,2.145,0,0,0-1.5-.535h-3.3v6.817Zm0-2.9a.847.847,0,0,1,0,1.694H250.5v-1.694Zm-.195-2.708a.755.755,0,0,1,0,1.509h-2v-1.509Zm5.642-1.208v6.817h5.074V509.08h-3.769v-1.636h3.185v-1.207h-3.185v-1.558h3.72V503.47Zm15.411,0h-1.256v4.324a1.387,1.387,0,0,1-.419,1.022,1.431,1.431,0,0,1-1.041.409,1.384,1.384,0,0,1-1.246-.691l-1.091.7a2.879,2.879,0,0,0,4.275.448,2.55,2.55,0,0,0,.779-1.889V503.47Zm7.9,4.081a1.631,1.631,0,0,1-1.675,1.675,1.6,1.6,0,0,1-1.188-.477,1.624,1.624,0,0,1-.477-1.2V503.47h-1.3v4.081a2.763,2.763,0,0,0,.847,2.054,3.135,3.135,0,0,0,4.246,0,2.734,2.734,0,0,0,.857-2.054V503.47h-1.305v4.081Zm9.3-2.7a2,2,0,0,0-.866-1.09,2.758,2.758,0,0,0-1.558-.438,2.461,2.461,0,0,0-1.676.575,1.9,1.9,0,0,0-.643,1.49,1.692,1.692,0,0,0,.984,1.568,11.046,11.046,0,0,0,1.646.585,3.253,3.253,0,0,1,.545.2,1.324,1.324,0,0,1,.282.166.694.694,0,0,1,.244.477c0,.467-.536.789-1.227.789a1.334,1.334,0,0,1-1.364-.789l-1.3.389a2.2,2.2,0,0,0,.935,1.188,3.116,3.116,0,0,0,1.734.468,2.743,2.743,0,0,0,1.821-.585,1.95,1.95,0,0,0,.712-1.577,1.847,1.847,0,0,0-.458-1.237,1.814,1.814,0,0,0-.487-.36,3.885,3.885,0,0,0-1.013-.379c-.564-.165-.935-.282-1.119-.36-.419-.176-.623-.389-.623-.643,0-.4.457-.721,1.032-.721a1.118,1.118,0,0,1,1.1.662l1.3-.379Zm5.234-.175v5.61H297.3v-5.61h2.26V503.47h-5.834v1.208Zm10.084,5.61.535-1.286H309.7l.536,1.286H311.6l-2.922-6.817h-1.061l-2.922,6.817Zm3.116-2.484h-2.074l1.042-2.473,1.032,2.473Zm7.883-4.334v6.817h4.743V509.08h-3.437v-5.61Zm8.74,6.817.535-1.286h3.088l.535,1.286h1.374l-2.921-6.817H327.36l-2.922,6.817Zm3.117-2.484h-2.075l1.043-2.473,1.032,2.473Zm7.464,2.484,1.432-4.558,1.432,4.558h1.061l2.309-6.817H341.29l-1.48,4.724-1.452-4.724h-1.071l-1.441,4.724-1.49-4.724h-1.344l2.309,6.817Zm11.3-2.785v2.785H349v-2.824l2.619-3.993h-1.5l-1.782,2.8-1.724-2.8H345.1l2.59,4.032Zm6.879-4.032v6.817h5.075V509.08h-3.769v-1.636h3.185v-1.207h-3.185v-1.558h3.72V503.47Zm8.272,0v6.817h1.305v-2.406h1.588l1.431,2.406h1.451l-1.558-2.63a2.145,2.145,0,0,0,1.3-1.987,2.036,2.036,0,0,0-.682-1.568A2.358,2.358,0,0,0,366,503.47ZM366,504.678a1,1,0,0,1,0,2h-1.85v-2Z" transform="translate(-34.353 -95.819)" fill-rule="evenodd"/>
    <path id="Path_5" data-name="Path 5" d="M255.209,489.222H368.8v.62H204.765v-.62h50.445Z" transform="translate(-34.538 -90.067)"/>
  </g>
</svg>
