<svg xmlns="http://www.w3.org/2000/svg" xmlns:xlink="http://www.w3.org/1999/xlink" width="780.862" height="622.631" viewBox="0 0 780.862 622.631">
  <defs>
    <linearGradient id="linear-gradient" y1="0.461" x2="1.052" y2="0.5" gradientUnits="objectBoundingBox">
      <stop offset="0" stop-color="#20c9ed"/>
      <stop offset="1" stop-color="#7d22c8"/>
    </linearGradient>
    <linearGradient id="linear-gradient-2" x1="-0.16" y1="0.732" x2="1" y2="0.689" xlink:href="#linear-gradient"/>
    <linearGradient id="linear-gradient-3" x1="0" y1="0.5" x2="1" y2="0.559" xlink:href="#linear-gradient"/>
    <linearGradient id="linear-gradient-4" x1="0" y1="0.5" x2="1" y2="0.5" xlink:href="#linear-gradient"/>
  </defs>
  <g id="signin-image" transform="translate(72.862 -17.867)">
    <g id="Group_9613" data-name="Group 9613" transform="translate(-246 -172.066)">
      <path id="Path_6091" data-name="Path 6091" d="M890.465,679.515a211.726,211.726,0,0,1-46.2,37.27c-.392.241-.79.467-1.189.7L815.44,693.023c.29-.27.612-.572.958-.9,20.594-19.555,122.831-156.28,129.643-189.574-.47,2.774,6.147,111.551-55.577,176.971Z" fill="#a9dbb0"/>
      <path id="Path_6092" data-name="Path 6092" d="M849.6,721.505c-.523.125-1.054.241-1.588.348L827.279,703.5c.405-.141.879-.309,1.42-.5,8.9-3.15,35.394-12.66,61.764-23.492,28.334-11.644,56.533-24.8,62.6-33.227-1.3,1.958-41.374,61.336-103.459,75.219Z" fill="#a9dbb0"/>
      <path id="Path_6093" data-name="Path 6093" d="M890.082,317.646h-2.953V236.752a46.819,46.819,0,0,0-46.819-46.819H668.926a46.819,46.819,0,0,0-46.819,46.819V680.541a46.819,46.819,0,0,0,46.819,46.819H840.31a46.819,46.819,0,0,0,46.819-46.819V375.227h2.953Z" fill="#3f3d56"/>
      <path id="Path_6094" data-name="Path 6094" d="M877.163,237.074V680.217a34.957,34.957,0,0,1-34.969,34.957H669.985a34.955,34.955,0,0,1-34.957-34.959V237.074a34.955,34.955,0,0,1,34.959-34.957h20.9A16.619,16.619,0,0,0,706.267,225h98.182a16.6,16.6,0,0,0,15.384-22.88h22.362a34.957,34.957,0,0,1,34.969,34.957Z" fill="#fff"/>
      <path id="Path_6095" data-name="Path 6095" d="M823.595,467.355H672.228a10.011,10.011,0,0,1-10-10v-4.978a10.011,10.011,0,0,1,10-10H823.595a10.011,10.011,0,0,1,10,10v4.978a10.011,10.011,0,0,1-10,10Z" fill="#f0f0f0"/>
      <path id="Path_6096" data-name="Path 6096" d="M823.595,510.262H672.228a10.011,10.011,0,0,1-10-10v-4.978a10.011,10.011,0,0,1,10-10H823.595a10.011,10.011,0,0,1,10,10v4.978a10.011,10.011,0,0,1-10,10Z" fill="#f0f0f0"/>
      <path id="Path_6097" data-name="Path 6097" d="M831.166,457.759H679.8a10.512,10.512,0,0,1-10.5-10.5v-4.978a10.512,10.512,0,0,1,10.5-10.5H831.166a10.512,10.512,0,0,1,10.5,10.5v4.978A10.512,10.512,0,0,1,831.166,457.759ZM679.8,433.781a8.51,8.51,0,0,0-8.5,8.5v4.978a8.509,8.509,0,0,0,8.5,8.5H831.166a8.509,8.509,0,0,0,8.5-8.5v-4.978a8.51,8.51,0,0,0-8.5-8.5Z" fill="#3f3d56"/>
      <path id="Path_6098" data-name="Path 6098" d="M831.166,500.666H679.8a10.512,10.512,0,0,1-10.5-10.5v-4.978a10.512,10.512,0,0,1,10.5-10.5H831.166a10.512,10.512,0,0,1,10.5,10.5v4.978a10.512,10.512,0,0,1-10.5,10.5ZM679.8,476.688a8.509,8.509,0,0,0-8.5,8.5v4.978a8.509,8.509,0,0,0,8.5,8.5H831.166a8.51,8.51,0,0,0,8.5-8.5v-4.978a8.51,8.51,0,0,0-8.5-8.5Z" fill="#3f3d56"/>
      <path id="Path_6099" data-name="Path 6099" d="M877.163,237.074v96.39A103.539,103.539,0,0,1,747.281,233.389q0-4.24.341-8.392h56.826a16.6,16.6,0,0,0,15.384-22.88h22.362a34.957,34.957,0,0,1,34.969,34.957Z" opacity="0.22" fill="url(#linear-gradient)"/>
      <path id="Path_6100" data-name="Path 6100" d="M722.041,709.154c0,2.032-.076,4.038-.24,6.02H669.985a34.955,34.955,0,0,1-34.957-34.959v-47.4a77.073,77.073,0,0,1,87.013,76.337Z" fill="url(#linear-gradient-2)"/>
    </g>
    <path id="Path_6115" data-name="Path 6115" d="M953,727.934H247a1,1,0,0,1,0-2H953a1,1,0,0,1,0,2Z" transform="translate(-246 -172.066)" fill="#3f3d56"/>
    <path id="Path_6116" data-name="Path 6116" d="M780.687,562H708.825a10.011,10.011,0,0,1-10-10v-4.978a10.011,10.011,0,0,1,10-10h71.862a10.011,10.011,0,0,1,10,10V552A10.011,10.011,0,0,1,780.687,562Z" transform="translate(-246 -172.066)" fill="url(#linear-gradient-3)"/>
    <path id="Path_6117" data-name="Path 6117" d="M788.259,552.407H716.4a10.512,10.512,0,0,1-10.5-10.5v-4.978a10.512,10.512,0,0,1,10.5-10.5h71.862a10.512,10.512,0,0,1,10.5,10.5v4.978a10.512,10.512,0,0,1-10.5,10.5ZM716.4,528.43a8.51,8.51,0,0,0-8.5,8.5v4.978a8.51,8.51,0,0,0,8.5,8.5h71.862a8.51,8.51,0,0,0,8.5-8.5V536.93a8.51,8.51,0,0,0-8.5-8.5Z" transform="translate(-246 -172.066)" fill="#3f3d56"/>
    <path id="Path_6118" data-name="Path 6118" d="M335.557,345.229c0,.071.007.139.007.211a2.626,2.626,0,1,1-4.788-1.492l-2.841-.759.5-1.314,10.137,2.722-.359,1.344-2.656-.713ZM151,747.029c.214-3.483,52.573-138.727,56.751-150.393L226.8,546.75l4.775,1.674c-1.369,5.488-56.386,140.027-60.041,148.686-3.6,8.526-17.827,45.639-20.534,49.919Zm72.5-201.437c-4.077,11.9-20.857,51.321-24.846,61.759-15.928,41.694-34.444,84.456-50.727,126.352-7.063,18.175-19.257,45.97-24.928,62.611,4.935-4.161,9.519-9.1,14.368-13.572,6.885-6.344,6.132-6.966,9.241-14.736,4.231-10.575,8.35-20.859,12.626-31.3l12.311-30.858c4.1-10.291,8.21-20.646,12.63-31.3,8.694-20.949,16.382-41.91,25.227-62.961,4.42-10.522,8.52-20.954,12.749-31.7,1.8-4.579,9.831-25.284,12.388-30.424l.1.033,17.138,1.762,1.142-2.843c-7.714-3.417-3.314-1.461-12.1-5.6l2.392-1.952a33.775,33.775,0,0,1,4.1-1.668c-1.21-7.144-2.255-12.159-.1-19.493,6.328-21.526,11.435-23.227,24.815-41.9,5.912-8.253,12.1-16.753,17.8-26.734,3.767-6.605,12.588-24.554,16.65-28.149.86,5.063,10.619,23.379,11.033,38.693q13.222-.72,26.613-.7,8.869.01,17.66.326a113.573,113.573,0,0,1-28.448-27.335,115.878,115.878,0,0,1-19.981-47.835c-9.231,1.267-18.738,2.458-22.652,9.8l-46.856,90.5c-6.542,12.749-18.34,33.124-19.825,48.674l-10.8-4.016-1.23,3.032,11.563,10.733c-.046.224-.117.475-.2.748l.147.05Zm133.45-203.716.5,1.314-2.841.759a2.627,2.627,0,1,1-4.79,1.492c0-.073,0-.141.009-.211l-2.656.713-.361-1.344,10.137-2.722Zm140.866-36.554-.081.048-.037-2.13c5.873-2.854,9.354-1.4,8.515-10.289-1.569-16.6-23.458-20.6-38.064-13.794-14.289,6.656-13.675,4.506-22.789,15.948-17.359,21.79-32.046,44.85-52.916,63.158-14.3,12.549-23.134,26.864-32.358,24.789-4.407-.992-6.539-4.5-8.311-8.39-.524-1.146-1.6-2.427.381-3.3A26.637,26.637,0,0,0,362.5,363c7.345-9.649,8.394-23.938,2.836-35.364-10.073-20.707-32.618-22.571-44.308-2.075l-.143.26a21.241,21.241,0,0,1,1.7-11.03c4.381-9.862,32.226-14.181,23.971-38.6H331.88c6.095,20.769-15.618,21.35-16.714,40.352-7.725-4.777-10.614-12.2-6.927-23.233l-15.286-.1c-1.078,10.286.845,18.52,6.443,24.23,6.216,6.343,14.91,6.621,18.316,16.271-2.858,10.788-.559,22.818,6.625,30.875a26.682,26.682,0,0,0,9.486,6.92c1.9.8,1.118,2.33.768,3.525-1.767,6.014-7.056,8.412-13.444,9.774a104.842,104.842,0,0,0,49.065,72.5c-.473-5.591.548-11.528,3.923-18.657,3.356-7.089,7.838-11.415,7.292-19.955-.308-4.821-2.618-7.307-3.67-11.946,3.809-5.961,17.246-19.37,22.868-24.8,33.058-31.918,28.769-32.25,50.15-67.856,2.885-4.8,7.459-11.085,9.151-15.008,11.6.315,14.608-1.3,24.519-2.618l1.155,5.811,5,1.928-.02,5.388-.055.033.024,6.711c-5.879,4.3-12.8,8.443-18.978,12.566-2.92,1.947-18.263,10.133-14.372,15.636,3,.484,6.152-3.047,8.438-4-1.6,8.1-4.112,16.511-6.075,24.672-1.758,7.314-11.759,45.818-11.3,50.185.356,3.417,4.929,6.055,8.044,7.261,8.594,3.325,24,3.1,30.6-4.165,1.716-1.892,1.551-3.1,1.142-6.018-2.539-18.124-9.534-44.253-14.247-62.745-.634-2.489-3-10.573-2.984-12.681l19.673-13.085c.049,4.135.068,8.17.062,12.2,0,2.332-.246,3.364.838,5.136a7.191,7.191,0,0,0,3.072,3.109c3.848-1.965,3.362-7.021,3.362-10.9,0-4.733-.121-9.626.026-14.337,2.163-1.745,24.254-16.4,25.889-17.039-.444,3.193-11.543,47.345-12.731,52.335q-1.558,6.545-3.065,13.147c-.775,3.377-3.039,10.374-1.089,13.325,5.408,8.179,28.013,9.5,36.561,1.23,3.2-3.1,1.624-7.081.6-12.744-3.95-21.863-10.2-44.124-15.578-65.742-.238-.962-.7-2.346-.854-3.34-.347-2.293,4.189-4.85,2.517-8.962-2.471-.423-6.515,3.085-8.513,4.414-3.943,2.621-21.887,15.094-23.766,15.5v-.05l.026,0-.024-1.448v-4.478ZM316.7,469.588a19.019,19.019,0,0,1-1.82,4.557c-8.634,15.264-14.344,26.848-16.89,48.077-5.774,48.13,12.485,79.553,14.758,111.852,1.967,27.966-.6,55.948-12.443,76.457h73.4c-28.153-28.149-40.64-60.307-39.657-91.213,4.233,15.8,19.293,60.131,43.73,73.61-.513-14.3-2.75-24.287-1.468-40.2,3.2-39.756,18.391-64,17.022-112.477-1.067-37.639-13.713-55.206-19.885-70.538q-14.766-.881-29.324-.9-13.621-.013-27.425.779Zm139.64-58.168c15.882-1.443,9.538-1.012,24.2.136-.671-5.919-11.561-69.408-12.02-69.991-.948,1.08-2.816,14.626-3.27,17.308-.95,5.655-1.941,11.519-2.955,17.328-1.336,7.67-5.329,29.066-5.952,35.219ZM513.569,374.8a77.668,77.668,0,0,1,24.488.081L525.99,306.147c-.535.326-.458-.042-.77,1.873l-5.672,32.38c-1.045,5.73-2.04,11.468-3.021,17.227-.953,5.608-2.321,11.541-2.957,17.178Zm-174-24.065c-4.61,1.138-9.587,3.426-13.429,2.095-4.152-1.441-3.921-7.338-2.172-10.57,3.947-7.3,33.507-7.3,37.454,0,1.749,3.232,1.982,9.131-2.17,10.57-3.945,1.368-9.087-1.081-13.8-2.183a9.9,9.9,0,0,0-5.884.088Z" transform="translate(-195.862 -155.816)" fill-rule="evenodd" fill="url(#linear-gradient-4)"/>
  </g>
</svg>
